<?xml version="1.0" encoding="UTF-8"?>
<svg version="1.1" xmlns="http://www.w3.org/2000/svg" width="300" height="300">
<path d="M0 0 C99 0 198 0 300 0 C300 99 300 198 300 300 C201 300 102 300 0 300 C0 201 0 102 0 0 Z " fill="#010100" transform="translate(0,0)"/>
<path d="M0 0 C5.45037019 2.86493818 8.57772195 6.72375121 10.625 12.5 C11.4237725 15.12263638 12.07914175 17.73251826 12.671875 20.41015625 C14.08156711 26.73027589 15.1912785 30.91813617 20 35.375 C24.69743995 38.28198104 29.65157161 37.87180612 35 37.375 C39.83361686 35.70520508 42.1897444 33.59853695 45 29.375 C46.49411483 25.07553257 47.48764928 20.63649948 48.53515625 16.2109375 C50.49776908 8.62072214 53.28951598 3.79898421 59.91796875 -0.53125 C66.4296026 -2.84209598 74.14678845 -2.86530415 80.73046875 -0.74609375 C89.24820047 3.69602796 95.08776647 10.24365093 98 19.375 C104.06612229 41.79697538 107.22520752 71.06323384 99.75 93.4375 C99.41403809 94.46254639 99.41403809 94.46254639 99.07128906 95.50830078 C94.16529078 110.06459723 85.7937847 121.68449433 71.984375 128.96484375 C49.05465779 139.67061354 18.60275587 140.03127497 -5.30078125 132.30859375 C-12.14606217 129.72562972 -17.54377494 126.20735436 -23 121.375 C-23.60328125 120.89933594 -24.2065625 120.42367187 -24.828125 119.93359375 C-33.36513847 112.56945826 -38.74794028 99.2119791 -41 88.375 C-41.30357422 86.951875 -41.30357422 86.951875 -41.61328125 85.5 C-45.62356412 62.80234459 -45.67367782 29.72969468 -33 9.375 C-24.38604984 -0.63580694 -12.89803242 -5.23304009 0 0 Z " fill="#FCFCFC" transform="translate(120,79.625)"/>
<path d="M0 0 C6.40663036 4.52607717 10.91409616 9.32835366 13 17 C13.91754008 25.10493738 11.61723334 33.65094606 9.609375 41.4765625 C7.5126696 49.74245724 5.93528383 58.11185433 4.33789062 66.48632812 C1.11369541 82.65834685 1.11369541 82.65834685 -4.34765625 88.51953125 C-9.34815512 91.31067863 -14.47442466 90.96732364 -20 90 C-24.28188868 87.87546137 -25.53857413 84.35094266 -27.02734375 79.9921875 C-28.18482688 75.68765183 -29.10638243 71.3657182 -30 67 C-30.49044163 64.66657335 -30.98136411 62.33324773 -31.47265625 60 C-32.7560738 53.86750302 -34.01351075 47.73010464 -35.25439453 41.58886719 C-35.76486831 39.13177335 -36.2982481 36.67935808 -36.85107422 34.23144531 C-37.12580566 33.01295898 -37.40053711 31.79447266 -37.68359375 30.5390625 C-37.9355249 29.45061035 -38.18745605 28.3621582 -38.44702148 27.24072266 C-39.72530744 19.74934618 -38.8433578 14.44361174 -35 8 C-26.95048934 -2.86790697 -11.98521181 -6.93513227 0 0 Z " fill="#BD4798" transform="translate(163,24)"/>
<path d="M0 0 C11.22 0 22.44 0 34 0 C36.29071199 6.87213598 38.34520503 13.63792574 40.1875 20.625 C40.46013672 21.62273437 40.73277344 22.62046875 41.01367188 23.6484375 C43.20530533 31.95357481 43.92152109 38.4692391 40.45703125 46.5 C36.87733955 52.64209835 30.92554402 57.52664211 24.08984375 59.59765625 C16.05206402 61.14511665 9.13894941 60.04340496 2 56 C-3.92931408 51.72590553 -7.30239446 46.08565792 -9 39 C-9.23083377 33.93281397 -8.61518104 29.70858079 -7.28515625 24.82421875 C-7.10995956 24.17298538 -6.93476288 23.52175201 -6.7542572 22.8507843 C-6.19850552 20.79403519 -5.63046336 18.74090598 -5.0625 16.6875 C-4.68478986 15.29122019 -4.30782984 13.89473723 -3.93164062 12.49804688 C-1.18090002 2.36180003 -1.18090002 2.36180003 0 0 Z " fill="#95CD44" transform="translate(133,219)"/>
<path d="M0 0 C-0.05081353 11.71251778 -5.56608814 20.37543087 -13.421875 28.765625 C-22.15228373 36.33197923 -31.74894742 38.74445167 -43 38 C-53.54238438 36.18464471 -61.8785767 28.42076389 -68 20 C-72.12082721 13.49848764 -73.82021426 7.68175439 -74 0 C-56.19898076 -11.86734616 -18.6742673 -8.15020988 0 0 Z " fill="#FC71AE" transform="translate(187,154)"/>
<path d="M0 0 C6.03089933 0.58344748 10.11884138 6.65017607 14.125 10.6875 C15.04410156 11.58662109 15.96320313 12.48574219 16.91015625 13.41210938 C18.22693359 14.72985352 18.22693359 14.72985352 19.5703125 16.07421875 C20.37227051 16.87432373 21.17422852 17.67442871 22.00048828 18.4987793 C26.83639179 24.54808716 26.61334096 31.61070175 26 39 C24.77788988 45.06947126 21.63270576 49.92570074 17 54 C9.302831 58.81073063 2.01560276 59.91098425 -7 59 C-13.46347213 56.87096856 -18.3363351 52.69154739 -22 47 C-23.43189557 43.28495417 -24.32245568 39.50641624 -25.1875 35.625 C-25.65724234 33.63732994 -26.12986325 31.6503378 -26.60546875 29.6640625 C-26.94263916 28.23368652 -26.94263916 28.23368652 -27.28662109 26.77441406 C-28.15562941 23.39473899 -29.25018111 20.13082977 -30.44262695 16.85302734 C-31 15 -31 15 -31 12 C-30.44650879 11.87995605 -29.89301758 11.75991211 -29.32275391 11.63623047 C-13.41785668 8.54880702 -13.41785668 8.54880702 0 0 Z " fill="#FCF200" transform="translate(201,206)"/>
<path d="M0 0 C2.92190126 1.29953824 5.7604432 2.74014655 8.59228516 4.22216797 C16.24387349 8.12881322 23.34540533 10.93659565 31.90478516 11.84716797 C30.29909695 19.23333371 28.57122633 26.58178762 26.71728516 33.90966797 C26.31799805 35.60833008 26.31799805 35.60833008 25.91064453 37.34130859 C23.82504452 45.46143382 20.93301847 51.54513025 13.765625 56.25195312 C7.58079951 59.66295966 0.77630746 59.79783974 -6.09521484 58.84716797 C-13.84564582 56.44112758 -19.13884293 52.04049049 -23.12255859 45.04248047 C-26.14379487 38.33171603 -26.15826833 30.63458363 -24.19287109 23.63232422 C-21.54865559 17.92386492 -16.56524157 13.70166713 -12.15771484 9.34716797 C-11.25085938 8.41646484 -10.34400391 7.48576172 -9.40966797 6.52685547 C-8.53375 5.65287109 -7.65783203 4.77888672 -6.75537109 3.87841797 C-5.95752197 3.07984375 -5.15967285 2.28126953 -4.33764648 1.45849609 C-2.09521484 -0.15283203 -2.09521484 -0.15283203 0 0 Z " fill="#01A759" transform="translate(98.09521484375,206.15283203125)"/>
<path d="M0 0 C6.00979339 4.30739944 9.21300172 9.88391755 11 17 C12.02253633 24.6806422 10.77178285 30.99188236 6.37109375 37.35546875 C1.83043366 42.97854882 -2.86330894 46.46071369 -10 48 C-17.06841668 48.70591284 -23.5996349 46.53161635 -30.375 44.6875 C-31.57511719 44.37876953 -32.77523437 44.07003906 -34.01171875 43.75195312 C-35.71908203 43.29272461 -35.71908203 43.29272461 -37.4609375 42.82421875 C-39.02013916 42.40789185 -39.02013916 42.40789185 -40.61083984 41.9831543 C-41.79347412 41.49649292 -41.79347412 41.49649292 -43 41 C-44.13889625 37.58331125 -43.72945116 36.44906529 -43 33 C-42.8548483 30.65185634 -42.75364089 28.30080143 -42.68359375 25.94921875 C-42.66281265 25.29041214 -42.64203156 24.63160553 -42.62062073 23.95283508 C-42.55564511 21.86448815 -42.49648425 19.77602388 -42.4375 17.6875 C-42.39426521 16.2649622 -42.3506494 14.84243594 -42.30664062 13.41992188 C-42.20001784 9.94673703 -42.09860652 6.47342274 -42 3 C-39.33394051 2.20624138 -36.66718833 1.41494929 -34 0.625 C-33.25621094 0.40328125 -32.51242188 0.1815625 -31.74609375 -0.046875 C-20.26540424 -3.44116581 -11.12826753 -6.02930251 0 0 Z " fill="#FA8F2D" transform="translate(268,128)"/>
<path d="M0 0 C1.81274414 0.50080078 1.81274414 0.50080078 3.66210938 1.01171875 C6.63121271 1.83320979 9.59778292 2.66284354 12.5625 3.5 C12.58755615 4.33136475 12.6126123 5.16272949 12.63842773 6.01928711 C12.73435531 9.14487302 12.83353303 12.2703353 12.93481445 15.39575195 C12.99871405 17.39722123 13.05896484 19.39880593 13.11914062 21.40039062 C13.3402564 28.15292633 13.68725619 34.7996041 14.5625 41.5 C13.46292969 41.75394531 12.36335938 42.00789063 11.23046875 42.26953125 C9.73688481 42.6167819 8.24340207 42.96446802 6.75 43.3125 C5.58718506 43.58271973 5.58718506 43.58271973 4.40087891 43.85839844 C0.04281672 44.88158777 -4.26446597 45.99365159 -8.5625 47.25 C-15.4529494 49.12827009 -20.68893262 49.08755482 -27.16015625 45.95703125 C-33.07986295 42.16963743 -37.98180295 36.36725171 -40.03515625 29.58984375 C-41.58138186 21.5584777 -40.48816462 14.63060783 -36.4375 7.5 C-26.48603826 -5.98345723 -14.40351802 -4.07038862 0 0 Z " fill="#01ADEB" transform="translate(61.4375,127.5)"/>
<path d="M0 0 C0.21914062 0.66644531 0.43828125 1.33289063 0.6640625 2.01953125 C4.35761504 12.75485673 9.06485842 21.80661416 17 30 C15.49837967 33.505771 13.47156889 35.78609447 10.7890625 38.4765625 C9.53996094 39.72953125 9.53996094 39.72953125 8.265625 41.0078125 C7.39421875 41.87148437 6.5228125 42.73515625 5.625 43.625 C4.32949219 44.93210937 4.32949219 44.93210937 3.0078125 46.265625 C2.1725 47.09835938 1.3371875 47.93109375 0.4765625 48.7890625 C-0.28575684 49.54912598 -1.04807617 50.30918945 -1.83349609 51.09228516 C-7.19236363 55.81103554 -12.4939048 55.41465717 -19.36328125 55.24609375 C-26.72801391 54.74772838 -32.08114506 51.46810673 -37 46 C-41.81890285 38.31304923 -42.91011398 31.00699006 -42 22 C-40.85413936 18.52131098 -39.2543664 15.87184143 -37 13 C-36.57332031 12.43667969 -36.14664063 11.87335938 -35.70703125 11.29296875 C-29.99868977 5.24794225 -20.76384479 3.96553033 -13 2 C-12.29343262 1.80728516 -11.58686523 1.61457031 -10.85888672 1.41601562 C-7.15677119 0.42600584 -3.83726537 -0.23982909 0 0 Z " fill="#00ADA8" transform="translate(77,172)"/>
<path d="M0 0 C6.26083657 0.75516402 12.31676756 2.12138599 18.4375 3.625 C19.43587891 3.84800781 20.43425781 4.07101563 21.46289062 4.30078125 C29.89973516 6.39751184 35.79785996 10.21215258 40.5 17.625 C43.2058549 23.84605032 43.06723058 31.16481846 41.26953125 37.625 C38.06244813 45.37436002 33.52406175 50.30636968 26 54 C22.7221357 55.04421415 19.61882255 55.19714266 16.1875 55.25 C15.19105469 55.27578125 14.19460937 55.3015625 13.16796875 55.328125 C3.72199248 54.34975015 -1.10939123 48.37751421 -7.4375 41.8125 C-8.35982422 40.87212891 -9.28214844 39.93175781 -10.23242188 38.96289062 C-12.49762623 36.65073903 -14.75293401 34.32976056 -17 32 C-15.49339437 28.77229919 -13.6225973 26.36714583 -11.30615234 23.65966797 C-9.08678746 20.83962264 -7.46837281 17.73544927 -5.8125 14.5625 C-5.47025391 13.93279297 -5.12800781 13.30308594 -4.77539062 12.65429688 C-2.58380826 8.51369562 -1.14326072 4.54372849 0 0 Z " fill="#FCC625" transform="translate(223,172)"/>
<path d="M0 0 C5.08235197 3.26037674 9.69255471 7.27028523 13.3125 12.125 C12.88603432 15.13486358 11.64830218 17.72948027 10.421875 20.4921875 C7.8206663 26.89642918 6.71820816 33.46112313 5.5625 40.25 C5.23185547 42.11398438 5.23185547 42.11398438 4.89453125 44.015625 C4.35758529 47.05053698 3.83048324 50.08680449 3.3125 53.125 C-7.93003253 52.26556826 -22.03234503 50.68130204 -30.23828125 42.125 C-35.49150199 34.87527219 -37.00366284 26.94212631 -35.6875 18.125 C-33.43373208 10.84439488 -29.12652389 5.22361918 -22.6875 1.125 C-15.39916443 -1.86022238 -7.60592482 -1.80479572 0 0 Z " fill="#007EC7" transform="translate(70.6875,73.875)"/>
<path d="M0 0 C6.11436896 3.87584476 9.8911379 9.07884463 12 16 C13.06722267 23.64409086 12.78806816 30.23945519 8.77734375 36.9375 C2.7844289 43.89191548 -2.76967307 46.31313983 -11.6875 48.375 C-13.2353418 48.76365234 -13.2353418 48.76365234 -14.81445312 49.16015625 C-19.03019228 50.19425709 -22.63656899 51 -27 51 C-27.12528076 50.23969482 -27.25056152 49.47938965 -27.37963867 48.69604492 C-27.96653693 45.19035925 -28.5768575 41.68912462 -29.1875 38.1875 C-29.48237305 36.3940918 -29.48237305 36.3940918 -29.78320312 34.56445312 C-31.02737668 27.53965784 -32.74438302 21.61169576 -36.1027832 15.2980957 C-37.14231479 12.63548052 -37.08558366 11.6087696 -36 9 C-33.92578125 6.4921875 -33.92578125 6.4921875 -31.3125 3.875 C-30.46300781 3.00617188 -29.61351562 2.13734375 -28.73828125 1.2421875 C-20.98682159 -5.10494209 -8.55316219 -4.86900791 0 0 Z " fill="#FB542B" transform="translate(253,76)"/>
<path d="M0 0 C7.24091239 4.80030691 10.17067355 9.5050631 12 17.9375 C12.17490967 18.70650635 12.34981934 19.4755127 12.5300293 20.26782227 C13.07755516 22.69618482 13.60341651 25.12844373 14.125 27.5625 C14.30675781 28.38234375 14.48851562 29.2021875 14.67578125 30.046875 C15.61187278 34.42468649 16.21878579 38.43051281 16 42.9375 C15.16597656 42.5765625 14.33195312 42.215625 13.47265625 41.84375 C3.75446366 37.8362479 -2.97301235 36.3516866 -12.9296875 40.01171875 C-15.86562412 41.32458097 -18.39714898 43.06102601 -21 44.9375 C-22.32414382 45.62223744 -23.65595464 46.29270212 -25 46.9375 C-26.80474671 45.24140025 -28.59294998 43.53217827 -30.375 41.8125 C-30.88289063 41.338125 -31.39078125 40.86375 -31.9140625 40.375 C-37.25487037 35.1747397 -38.29857851 30.40612029 -38.4375 23.125 C-38.30896125 15.50104548 -36.51366267 10.72658041 -31.35546875 5.1640625 C-22.88933988 -2.67140666 -10.67304365 -5.48124106 0 0 Z " fill="#4F409A" transform="translate(111,37.0625)"/>
<path d="M0 0 C7.23479544 3.06182469 12.7882534 7.5230386 16.4375 14.55078125 C18.66182766 21.1952472 18.04693774 28.30107038 16.4765625 35.03125 C13.16125052 40.10172715 8.95747556 44.35476837 4.3515625 48.28125 C3.6915625 48.28125 3.0315625 48.28125 2.3515625 48.28125 C2.3515625 47.62125 2.3515625 46.96125 2.3515625 46.28125 C1.4853125 45.85005859 1.4853125 45.85005859 0.6015625 45.41015625 C-0.81936253 44.69722685 -2.23659001 43.97683512 -3.6484375 43.24609375 C-4.3084375 42.90707031 -4.9684375 42.56804687 -5.6484375 42.21875 C-6.3084375 41.87714844 -6.9684375 41.53554687 -7.6484375 41.18359375 C-13.81595005 38.40098555 -21.07863008 38.21273622 -27.51953125 40.140625 C-30.6383594 41.3899669 -33.64496831 42.77951541 -36.6484375 44.28125 C-36.3207725 37.13815303 -35.2316846 30.1203862 -33.9609375 23.09375 C-33.75645996 21.82966309 -33.75645996 21.82966309 -33.54785156 20.54003906 C-32.17598751 13.32997416 -29.11028941 8.0925125 -23.3828125 3.44140625 C-22.72796875 3.07917969 -22.073125 2.71695313 -21.3984375 2.34375 C-20.73328125 1.96347656 -20.068125 1.58320312 -19.3828125 1.19140625 C-13.51979815 -1.88535578 -6.36632905 -1.72773532 0 0 Z " fill="#FB4E9A" transform="translate(209.6484375,35.71875)"/>
<path d="M0 0 C0.99 0.495 0.99 0.495 2 1 C1.81824219 1.91495239 1.81824219 1.91495239 1.6328125 2.84838867 C1.08365996 5.62715335 0.54176647 8.40728626 0 11.1875 C-0.28617188 12.62706055 -0.28617188 12.62706055 -0.578125 14.09570312 C-0.84882813 15.49272461 -0.84882813 15.49272461 -1.125 16.91796875 C-1.29257813 17.77156982 -1.46015625 18.6251709 -1.6328125 19.50463867 C-2.00595229 22.04045103 -2.06412996 24.44081397 -2 27 C-0.9275 26.360625 0.145 25.72125 1.25 25.0625 C5.6709562 22.42692996 9.36960234 21.84773625 14.5 21.8125 C15.4384375 21.79832031 16.376875 21.78414062 17.34375 21.76953125 C20 22 20 22 24 24 C20.04 24 16.08 24 12 24 C13.98 24.33 15.96 24.66 18 25 C18 25.33 18 25.66 18 26 C16.948125 26.02126953 16.948125 26.02126953 15.875 26.04296875 C9.21039047 26.37801026 3.98377935 27.32701313 -1 32 C-5.41710018 37.50681793 -6.49263121 43.18274445 -7.890625 49.92382812 C-9.27384205 55.85934514 -11.35642945 59.95592921 -16 64 C-21.00320804 66.7906954 -26.4152562 66.66524154 -32 66 C-37.0149258 63.53812733 -40.90485075 60.1074235 -42.80200195 54.72436523 C-43.81952911 51.08339208 -44.72841663 47.42087361 -45.62304688 43.74804688 C-47.13983892 37.94125443 -48.66552369 34.2138881 -53 30 C-59.70903942 26.40587174 -66.49016906 26.23827462 -74 27 C-77.5563993 28.31203733 -77.5563993 28.31203733 -80 30 C-80.66 30 -81.32 30 -82 30 C-81.5625 27.6875 -81.5625 27.6875 -80 25 C-74.51640434 21.9875526 -68.14410205 21.06546021 -62 22 C-52.12222222 24.87777778 -52.12222222 24.87777778 -50 27 C-50.37994939 22.12064992 -50.80134359 17.365517 -52.0625 12.625 C-53 9 -53 9 -53 5 C-52.34 5 -51.68 5 -51 5 C-50.67 3.68 -50.34 2.36 -50 1 C-47.9304935 9.19281103 -46.08068297 17.40497672 -44.5390625 25.71484375 C-44.41228119 26.39309708 -44.28549988 27.0713504 -44.15487671 27.77015686 C-43.51634633 31.19275527 -42.89049062 34.6169748 -42.28271484 38.04516602 C-40.22331817 50.76395114 -40.22331817 50.76395114 -33 61 C-29.97480868 61.5154686 -29.97480868 61.5154686 -26.625 61.4375 C-25.50351563 61.45683594 -24.38203125 61.47617188 -23.2265625 61.49609375 C-19.35603898 60.90098904 -17.75229275 59.73754832 -15 57 C-11.8682705 50.73654099 -10.96391952 43.93485613 -9.75 37.09765625 C-8.15420262 28.18986543 -5.86107108 19.43838688 -3.62109375 10.67578125 C-3.08753075 8.37709791 -2.70922925 6.15318533 -2.4375 3.8125 C-2.293125 2.884375 -2.14875 1.95625 -2 1 C-1.34 0.67 -0.68 0.34 0 0 Z " fill="#140D13" transform="translate(176,52)"/>
<path d="M0 0 C-0.05081353 11.71251778 -5.56608814 20.37543087 -13.421875 28.765625 C-22.15228373 36.33197923 -31.74894742 38.74445167 -43 38 C-53.54238438 36.18464471 -61.8785767 28.42076389 -68 20 C-72.12082721 13.49848764 -73.82021426 7.68175439 -74 0 C-56.19898076 -11.86734616 -18.6742673 -8.15020988 0 0 Z M-70 2 C-70.51192781 10.74116741 -65.60057797 17.3930411 -60.125 23.875 C-53.56641276 30.85833384 -46.33305142 34.85342358 -36.625 35.375 C-28.30123306 35.14888749 -20.99307621 30.51607627 -15 25 C-9.73003459 19.20303805 -4.32373612 12.53230575 -3.75 4.5 C-3.8325 3.675 -3.915 2.85 -4 2 C-14.01774489 -1.89578968 -24.62657544 -2.33683998 -35.25 -2.25 C-36.42643066 -2.24468262 -37.60286133 -2.23936523 -38.81494141 -2.23388672 C-54.77767478 -2.20386679 -54.77767478 -2.20386679 -70 2 Z " fill="#425AA7" transform="translate(187,154)"/>
<path d="M0 0 C0.33 0 0.66 0 1 0 C1 5.94 1 11.88 1 18 C1.66 18 2.32 18 3 18 C3.02763357 19.35404497 3.04667422 20.70826555 3.0625 22.0625 C3.07410156 22.81660156 3.08570313 23.57070312 3.09765625 24.34765625 C2.97851072 27.58364877 2.45794854 30.79436022 2 34 C9.59 35.98 17.18 37.96 25 40 C24.01 40.495 24.01 40.495 23 41 C23.33 41.99 23.66 42.98 24 44 C21.31199023 43.37713159 18.6246008 42.75176793 15.9375 42.125 C15.18533203 41.95097656 14.43316406 41.77695313 13.65820312 41.59765625 C9.06256983 40.52335236 4.52702051 39.33465943 0 38 C-0.66 40.97 -1.32 43.94 -2 47 C-2.66 46.34 -3.32 45.68 -4 45 C-4.99 45.495 -4.99 45.495 -6 46 C-5.52229477 44.06213915 -5.04278429 42.12472326 -4.5625 40.1875 C-4.29566406 39.10855469 -4.02882812 38.02960938 -3.75390625 36.91796875 C-3.23922588 34.9259157 -2.65062825 32.95188476 -2 31 C-1.780435 28.6454044 -1.60935748 26.28617211 -1.46484375 23.92578125 C-1.40037804 22.90003242 -1.40037804 22.90003242 -1.33460999 21.8535614 C-1.19846319 19.67342222 -1.06791145 17.49298904 -0.9375 15.3125 C-0.84607191 13.83265946 -0.75427934 12.35284139 -0.66210938 10.87304688 C-0.43717931 7.24894893 -0.21726526 3.62456645 0 0 Z " fill="#19150B" transform="translate(223,134)"/>
<path d="M0 0 C1.20813032 3.62439095 0.36923038 4.61681957 -1.16308594 7.93945312 C-2.70548369 11.73695517 -3.36358397 15.73622807 -4.125 19.75 C-4.29676758 20.62946289 -4.46853516 21.50892578 -4.64550781 22.41503906 C-5.81755742 28.58479921 -6.71187281 34.71882727 -7 41 C-7.33 41 -7.66 41 -8 41 C-8.33 39.02 -8.66 37.04 -9 35 C-9.33 36.32 -9.66 37.64 -10 39 C-11.65 39 -13.3 39 -15 39 C-15 39.66 -15 40.32 -15 41 C-21.57534861 40.37968409 -27.66692592 38.85102717 -34 37 C-32.02 36.505 -32.02 36.505 -30 36 C-30 35.34 -30 34.68 -30 34 C-23.73 35.32 -17.46 36.64 -11 38 C-10.9175 36.576875 -10.835 35.15375 -10.75 33.6875 C-10.243398 28.12211518 -9.25281344 22.71608645 -8.125 17.25 C-7.96354492 16.44651123 -7.80208984 15.64302246 -7.63574219 14.81518555 C-6.59014792 9.9044455 -5.32670861 5.46634518 -3 1 C-2.01 0.67 -1.02 0.34 0 0 Z " fill="#081015" transform="translate(85,89)"/>
<path d="M0 0 C1.54983261 1.54983261 1.28132961 3.03668378 1.375 5.1875 C1.3360856 8.6675588 0.93752576 10.77798349 -1.1875 13.5625 C-4 16 -4 16 -6.6875 16.5 C-9 16 -9 16 -11 14 C-11.48938638 9.10613617 -11.50403781 6.92406932 -9.125 2.5625 C-5.94956413 -1.26670208 -4.65503164 -1.19359786 0 0 Z " fill="#E0583B" transform="translate(133,126)"/>
<path d="M0 0 C2.96502761 3.21211324 4.90649994 5.53516571 5.1875 9.9375 C5 13 5 13 3 16 C0.6875 16.5625 0.6875 16.5625 -2 16 C-5.28260305 13.22802409 -6.80076826 11.67354663 -7.3125 7.375 C-7.3125 4.89680692 -7.21946888 2.46780567 -7 0 C-4.20824656 -1.39587672 -2.93876905 -0.97958968 0 0 Z " fill="#52C377" transform="translate(173,126)"/>
<path d="M0 0 C0.33 0 0.66 0 1 0 C0.40390686 6.73516737 -0.85094023 13.02788945 -2.5625 19.5625 C-2.79646484 20.47580078 -3.03042969 21.38910156 -3.27148438 22.33007812 C-3.84223625 24.55484564 -4.41847478 26.77802897 -5 29 C-5.66 28.34 -6.32 27.68 -7 27 C-7.66 27.99 -8.32 28.98 -9 30 C-8.31282115 23.86629244 -6.76723027 18.11113109 -5.0625 12.1875 C-4.79759766 11.23423828 -4.53269531 10.28097656 -4.25976562 9.29882812 C-4.00001953 8.38939453 -3.74027344 7.47996094 -3.47265625 6.54296875 C-3.23812744 5.71821045 -3.00359863 4.89345215 -2.76196289 4.04370117 C-2 2 -2 2 0 0 Z " fill="#05140A" transform="translate(131,219)"/>
<path d="M0 0 C0.66 0.33 1.32 0.66 2 1 C1.21932746 5.10633756 0.4235936 9.20961323 -0.375 13.3125 C-0.59671875 14.47974609 -0.8184375 15.64699219 -1.046875 16.84960938 C-1.26601562 17.96787109 -1.48515625 19.08613281 -1.7109375 20.23828125 C-1.90993652 21.26993408 -2.10893555 22.30158691 -2.31396484 23.36450195 C-3 26 -3 26 -5 29 C-5.66 29 -6.32 29 -7 29 C-6.47633505 22.71602065 -5.30246656 16.91041697 -3.69140625 10.81640625 C-3.11322945 8.46123409 -2.70903233 6.21679538 -2.4375 3.8125 C-2.293125 2.884375 -2.14875 1.95625 -2 1 C-1.34 0.67 -0.68 0.34 0 0 Z " fill="#15070F" transform="translate(176,52)"/>
<path d="M0 0 C0.33 0.33 0.66 0.66 1 1 C3.33297433 1.04092937 5.66705225 1.04241723 8 1 C8.33 2.32 8.66 3.64 9 5 C-8.25 5 -8.25 5 -12 4 C-11.67 3.01 -11.34 2.02 -11 1 C-7.5140847 -0.47481032 -3.72035279 -0.14039067 0 0 Z " fill="#A0A0A0" transform="translate(283,288)"/>
<path d="M0 0 C0.33 0 0.66 0 1 0 C1 1.65 1 3.3 1 5 C1.55461914 4.84329834 2.10923828 4.68659668 2.68066406 4.52514648 C5.20106861 3.8191486 7.72536308 3.12820255 10.25 2.4375 C11.12269531 2.19064453 11.99539062 1.94378906 12.89453125 1.68945312 C14.16103516 1.34624023 14.16103516 1.34624023 15.453125 0.99609375 C16.22817383 0.78138428 17.00322266 0.5666748 17.80175781 0.34545898 C20.19024018 -0.0298967 21.720964 0.25318442 24 1 C23.01 1.495 23.01 1.495 22 2 C22.33 2.66 22.66 3.32 23 4 C20.75194998 4.67321284 18.50147776 5.33834123 16.25 6 C14.99703125 6.37125 13.7440625 6.7425 12.453125 7.125 C9 8 9 8 5 8 C5 7.34 5 6.68 5 6 C3.35 6 1.7 6 0 6 C0 4.02 0 2.04 0 0 Z " fill="#1A0A04" transform="translate(225,122)"/>
<path d="M0 0 C1.299375 0.2475 1.299375 0.2475 2.625 0.5 C13.06672546 2.04750202 13.06672546 2.04750202 23 0 C23 0.99 23 1.98 23 3 C16.9696093 5.68017364 9.23671778 6.35731884 2.890625 4.32421875 C1.25 3.5 1.25 3.5 -1 2 C-0.67 1.34 -0.34 0.68 0 0 Z " fill="#3252A3" transform="translate(139,187)"/>
<path d="M0 0 C0 1.32 0 2.64 0 4 C-5.61 4 -11.22 4 -17 4 C-17 2.68 -17 1.36 -17 0 C-14.72979256 -0.19493195 -12.45879711 -0.38070418 -10.1875 -0.5625 C-8.92292969 -0.66691406 -7.65835937 -0.77132813 -6.35546875 -0.87890625 C-3 -1 -3 -1 0 0 Z " fill="#B8B8B8" transform="translate(270,289)"/>
<path d="M0 0 C0.33 0 0.66 0 1 0 C1 1.98 1 3.96 1 6 C-0.65 6 -2.3 6 -4 6 C-4 6.66 -4 7.32 -4 8 C-10.57534861 7.37968409 -16.66692592 5.85102717 -23 4 C-21.68 3.67 -20.36 3.34 -19 3 C-19 2.34 -19 1.68 -19 1 C-9.595 2.98 -9.595 2.98 0 5 C0 3.35 0 1.7 0 0 Z " fill="#001824" transform="translate(74,122)"/>
<path d="M0 0 C-0.99 0.33 -1.98 0.66 -3 1 C-2.34 1.66 -1.68 2.32 -1 3 C-6.61 4.32 -12.22 5.64 -18 7 C-18 6.34 -18 5.68 -18 5 C-19.32 4.67 -20.64 4.34 -22 4 C-19.08644159 3.13372595 -16.16995672 2.28168994 -13.25 1.4375 C-12.425 1.19064453 -11.6 0.94378906 -10.75 0.68945312 C-9.95078125 0.46064453 -9.1515625 0.23183594 -8.328125 -0.00390625 C-7.5949707 -0.21861572 -6.86181641 -0.4333252 -6.10644531 -0.65454102 C-3.76130184 -1.03914672 -2.24174192 -0.72878764 0 0 Z " fill="#00181D" transform="translate(70,171)"/>
<path d="M0 0 C1.32 5.61 2.64 11.22 4 17 C3.01 16.67 2.02 16.34 1 16 C0.67 16.66 0.34 17.32 0 18 C-1.32 12.39 -2.64 6.78 -4 1 C-1 0 -1 0 0 0 Z " fill="#1C1E03" transform="translate(174,230)"/>
<path d="M0 0 C0.33 0 0.66 0 1 0 C1 9.24 1 18.48 1 28 C0.67 28 0.34 28 0 28 C-0.06058594 26.89140625 -0.12117188 25.7828125 -0.18359375 24.640625 C-0.26802951 23.1770718 -0.35267599 21.71353075 -0.4375 20.25 C-0.47681641 19.52039063 -0.51613281 18.79078125 -0.55664062 18.0390625 C-0.76147098 14.5727027 -1.0852002 11.34666974 -2 8 C-3.32 7.67 -4.64 7.34 -6 7 C-6 6.34 -6 5.68 -6 5 C-4.35 5 -2.7 5 -1 5 C-0.67 3.35 -0.34 1.7 0 0 Z " fill="#060809" transform="translate(76,123)"/>
<path d="M0 0 C-0.33 1.32 -0.66 2.64 -1 4 C-4.3 4.66 -7.6 5.32 -11 6 C-10 2 -10 2 -8.22265625 0.91796875 C-7.15337891 0.55638672 -7.15337891 0.55638672 -6.0625 0.1875 C-5.35222656 -0.06644531 -4.64195312 -0.32039062 -3.91015625 -0.58203125 C-2 -1 -2 -1 0 0 Z " fill="#1E1E13" transform="translate(191,210)"/>
<path d="M0 0 C1.98 0.495 1.98 0.495 4 1 C4 3.97 4 6.94 4 10 C3.01 10.495 3.01 10.495 2 11 C0.4375 9.4375 0.4375 9.4375 -1 7 C-0.6875 3.25 -0.6875 3.25 0 0 Z " fill="#DB272D" transform="translate(130,126)"/>
<path d="M0 0 C1.74965358 -0.05429959 3.49979787 -0.09292823 5.25 -0.125 C6.22453125 -0.14820312 7.1990625 -0.17140625 8.203125 -0.1953125 C11 0 11 0 15 2 C11.04 2 7.08 2 3 2 C5.97 2.495 5.97 2.495 9 3 C9 3.33 9 3.66 9 4 C5.04 4 1.08 4 -3 4 C-2.67 3.34 -2.34 2.68 -2 2 C-1.34 2 -0.68 2 0 2 C0 1.34 0 0.68 0 0 Z " fill="#3C1628" transform="translate(185,74)"/>
<path d="M0 0 C0 1.32 0 2.64 0 4 C-5.52 4.368 -5.52 4.368 -7.875 2.5625 C-9 1 -9 1 -9 0 C-3.375 -1.125 -3.375 -1.125 0 0 Z " fill="#AFAFAF" transform="translate(270,289)"/>
<path d="M0 0 C0.66 0.99 1.32 1.98 2 3 C-2.29 3 -6.58 3 -11 3 C-11 2.34 -11 1.68 -11 1 C-7.04340734 -0.31886422 -4.17660573 -0.26518132 0 0 Z " fill="#3151A3" transform="translate(141,149)"/>
<path d="M0 0 C0.99 0.33 1.98 0.66 3 1 C3.33 2.98 3.66 4.96 4 7 C2.68 6.67 1.36 6.34 0 6 C-0.38218767 4.34385343 -0.71395102 2.67542976 -1 1 C-0.67 0.67 -0.34 0.34 0 0 Z " fill="#DFACC5" transform="translate(168,126)"/>
<path d="M0 0 C0 0.33 0 0.66 0 1 C-0.94875 1.103125 -1.8975 1.20625 -2.875 1.3125 C-6.29107501 1.68539295 -6.29107501 1.68539295 -8 5 C-9.32 4.67 -10.64 4.34 -12 4 C-11.67 3.01 -11.34 2.02 -11 1 C-7.50970582 -0.47666292 -3.72563614 -0.07164685 0 0 Z " fill="#848484" transform="translate(283,288)"/>
<path d="M0 0 C0 0.66 0 1.32 0 2 C-3.3 2.66 -6.6 3.32 -10 4 C-9.67 3.01 -9.34 2.02 -9 1 C-5.846632 0.29925156 -3.27275026 0 0 0 Z " fill="#2D4FA1" transform="translate(129,151)"/>
<path d="M0 0 C0.99 0 1.98 0 3 0 C2.67 1.98 2.34 3.96 2 6 C1.01 6 0.02 6 -1 6 C-1.042721 4.33388095 -1.04063832 2.66617115 -1 1 C-0.67 0.67 -0.34 0.34 0 0 Z " fill="#9BD6ED" transform="translate(127,127)"/>
<path d="M0 0 C0.33 0 0.66 0 1 0 C1 1.65 1 3.3 1 5 C3.64 4.67 6.28 4.34 9 4 C8.34 4.66 7.68 5.32 7 6 C7.66 6.66 8.32 7.32 9 8 C7.68 8 6.36 8 5 8 C5 7.34 5 6.68 5 6 C3.35 6 1.7 6 0 6 C0 4.02 0 2.04 0 0 Z " fill="#511F0F" transform="translate(225,122)"/>
<path d="M0 0 C1.65 0 3.3 0 5 0 C4.67 1.32 4.34 2.64 4 4 C2.35 3.67 0.7 3.34 -1 3 C-0.67 2.01 -0.34 1.02 0 0 Z " fill="#878787" transform="translate(253,289)"/>
<path d="M0 0 C1.98 0 3.96 0 6 0 C6 0.99 6 1.98 6 3 C4.02 3.33 2.04 3.66 0 4 C0 2.68 0 1.36 0 0 Z " fill="#CBCBCB" transform="translate(277,289)"/>
</svg>
